<?xml version="1.0" encoding="UTF-8" standalone="no"?>
<!-- Created with Inkscape (http://www.inkscape.org/) -->

<svg
   width="240"
   height="62.264999"
   viewBox="0 0 63.499996 16.474282"
   version="1.1"
   id="svg1"
   xml:space="preserve"
   inkscape:version="1.3 (0e150ed, 2023-07-21)"
   sodipodi:docname="logo-light-full-shareframe.svg"
   xmlns:inkscape="http://www.inkscape.org/namespaces/inkscape"
   xmlns:sodipodi="http://sodipodi.sourceforge.net/DTD/sodipodi-0.dtd"
   xmlns="http://www.w3.org/2000/svg"
   xmlns:svg="http://www.w3.org/2000/svg"><sodipodi:namedview
     id="namedview1"
     pagecolor="#ffffff"
     bordercolor="#000000"
     borderopacity="0.25"
     inkscape:showpageshadow="2"
     inkscape:pageopacity="0.0"
     inkscape:pagecheckerboard="true"
     inkscape:deskcolor="#d1d1d1"
     inkscape:document-units="mm"
     inkscape:clip-to-page="false"
     labelstyle="default"
     inkscape:zoom="1.8218453"
     inkscape:cx="134.20459"
     inkscape:cy="9.0567514"
     inkscape:window-width="1920"
     inkscape:window-height="1212"
     inkscape:window-x="530"
     inkscape:window-y="91"
     inkscape:window-maximized="0"
     inkscape:current-layer="g3" /><defs
     id="defs1"><inkscape:path-effect
       effect="fillet_chamfer"
       id="path-effect10"
       is_visible="true"
       lpeversion="1"
       nodesatellites_param="F,0,0,1,0,0,0,1 @ F,0,0,1,0,0,0,1"
       radius="0"
       unit="px"
       method="auto"
       mode="F"
       chamfer_steps="1"
       flexible="false"
       use_knot_distance="true"
       apply_no_radius="true"
       apply_with_radius="true"
       only_selected="false"
       hide_knots="false" /><inkscape:path-effect
       effect="fillet_chamfer"
       id="path-effect9"
       is_visible="true"
       lpeversion="1"
       nodesatellites_param="F,0,0,1,0,0,0,1 @ F,0,0,1,0,0,0,1"
       radius="0"
       unit="px"
       method="auto"
       mode="F"
       chamfer_steps="1"
       flexible="false"
       use_knot_distance="true"
       apply_no_radius="true"
       apply_with_radius="true"
       only_selected="false"
       hide_knots="false" /><inkscape:path-effect
       effect="fillet_chamfer"
       id="path-effect8"
       is_visible="true"
       lpeversion="1"
       nodesatellites_param=""
       radius="0"
       unit="px"
       method="auto"
       mode="F"
       chamfer_steps="1"
       flexible="false"
       use_knot_distance="true"
       apply_no_radius="true"
       apply_with_radius="true"
       only_selected="false"
       hide_knots="false" /><inkscape:path-effect
       effect="fillet_chamfer"
       id="path-effect7"
       is_visible="true"
       lpeversion="1"
       nodesatellites_param="F,0,0,1,0,0,0,1 @ F,0,0,1,0,0,0,1"
       radius="0"
       unit="px"
       method="auto"
       mode="F"
       chamfer_steps="1"
       flexible="false"
       use_knot_distance="true"
       apply_no_radius="true"
       apply_with_radius="true"
       only_selected="false"
       hide_knots="false" /><inkscape:path-effect
       effect="powerstroke"
       id="path-effect3"
       is_visible="true"
       lpeversion="1.3"
       scale_width="1"
       interpolator_type="CentripetalCatmullRom"
       interpolator_beta="0.75"
       start_linecap_type="round"
       end_linecap_type="round"
       offset_points="5.4160246,0.054460576"
       linejoin_type="spiro"
       miter_limit="4"
       not_jump="true"
       sort_points="true"
       message="&lt;b&gt;Strg + Klick&lt;/b&gt; und Verschieben eines Anfassers" /><inkscape:path-effect
       effect="simplify"
       id="path-effect2"
       is_visible="true"
       lpeversion="1.3"
       threshold="0.012"
       steps="1"
       smooth_angles="0"
       helper_size="0"
       simplify_individual_paths="false"
       simplify_just_coalesce="false"
       step="1" /><rect
       x="55.712746"
       y="37.873688"
       width="158.60915"
       height="35.281143"
       id="rect3" /><rect
       x="80.412979"
       y="43.911522"
       width="131.73457"
       height="59.280556"
       id="rect1" /><rect
       x="55.712746"
       y="37.873688"
       width="194.28726"
       height="78.369324"
       id="rect3-0" /><rect
       x="55.712746"
       y="37.873688"
       width="158.60915"
       height="35.281143"
       id="rect3-7" /><rect
       x="55.712746"
       y="37.873688"
       width="158.60915"
       height="35.281143"
       id="rect3-4" /><rect
       x="55.712746"
       y="37.873688"
       width="158.60915"
       height="35.281143"
       id="rect3-7-4" /></defs><g
     inkscape:label="Ebene 1"
     inkscape:groupmode="layer"
     id="layer1"
     transform="translate(-0.52916876,-10.474044)"><g
       id="g3"
       transform="matrix(1.5088942,0,0,1.5088942,-14.040021,-8.9567136)"><path
         d="m 15.584721,20.789741 q -0.618962,0 -1.056447,-0.194438 -0.437486,-0.197679 -0.670812,-0.570352 -0.233325,-0.372673 -0.233325,-0.897656 h 0.962468 q 0.0065,0.265732 0.126385,0.453689 0.123144,0.187957 0.346748,0.288417 0.223604,0.100459 0.531464,0.100459 0.278694,0 0.482854,-0.07453 0.207401,-0.07778 0.320823,-0.217123 0.116663,-0.139347 0.116663,-0.327304 0,-0.15555 -0.09074,-0.268973 -0.0875,-0.116663 -0.278694,-0.20416 -0.187957,-0.0875 -0.495817,-0.15231 l -0.50878,-0.110181 q -0.719421,-0.155551 -1.069409,-0.489336 -0.349989,-0.333785 -0.349989,-0.852287 0,-0.440726 0.230085,-0.76803 0.230085,-0.330545 0.641646,-0.515261 0.414801,-0.184716 0.962468,-0.184716 0.554149,0 0.959228,0.187956 0.405079,0.187957 0.628683,0.537946 0.226845,0.346748 0.243048,0.832843 H 16.44997 q -0.02593,-0.343507 -0.265732,-0.541186 -0.239807,-0.197679 -0.628683,-0.197679 -0.243048,0 -0.434245,0.07777 -0.187957,0.07454 -0.298139,0.210642 -0.106941,0.136106 -0.106941,0.311101 0,0.149069 0.08426,0.25925 0.08426,0.106941 0.268973,0.187957 0.184716,0.08102 0.479614,0.145829 l 0.46341,0.100459 q 0.385636,0.08426 0.667571,0.207401 0.281935,0.119904 0.463411,0.288417 0.181475,0.165272 0.268973,0.382394 0.0875,0.217123 0.0875,0.489336 0,0.463411 -0.233326,0.803678 -0.230085,0.337026 -0.66109,0.518501 -0.427763,0.181476 -1.020799,0.181476 z"
         id="text1"
         style="font-weight:bold;font-size:6.63682px;font-family:Inter;-inkscape-font-specification:'Inter Bold';letter-spacing:-0.207401px;stroke:#000000;stroke-width:0"
         aria-label="S" /><path
         d="m 20.321526,18.809713 v 1.902253 H 19.365539 V 15.88342 h 0.955987 v 2.29761 h -0.178235 q 0.162032,-0.453689 0.463411,-0.706458 0.301379,-0.256011 0.76803,-0.256011 0.366192,0 0.635165,0.158791 0.268973,0.155551 0.414801,0.45693 0.149069,0.301379 0.149069,0.735624 v 2.14206 H 21.621021 V 18.7449 q 0,-0.343507 -0.165273,-0.521742 -0.162031,-0.181475 -0.46341,-0.181475 -0.197679,0 -0.349989,0.08102 -0.15231,0.08102 -0.236566,0.25277 -0.08426,0.168513 -0.08426,0.434245 z m 3.768858,1.960584 q -0.340267,0 -0.605999,-0.113422 -0.265732,-0.113422 -0.418042,-0.340267 -0.15231,-0.230085 -0.15231,-0.570352 0,-0.288416 0.106941,-0.479614 0.106941,-0.194438 0.291658,-0.3111 0.187956,-0.119904 0.427763,-0.181476 0.243048,-0.06157 0.50878,-0.08426 0.314342,-0.03241 0.499058,-0.06157 0.184716,-0.02916 0.265732,-0.08426 0.08102,-0.05509 0.08102,-0.165272 v -0.02268 q 0,-0.126385 -0.06805,-0.220363 -0.06805,-0.09722 -0.194438,-0.15231 -0.123144,-0.05509 -0.298138,-0.05509 -0.174994,0 -0.311101,0.05509 -0.132866,0.05509 -0.210641,0.155551 -0.07778,0.100459 -0.09074,0.233325 h -0.897656 q 0.02268,-0.353229 0.207401,-0.61248 0.187956,-0.25925 0.524982,-0.398598 0.337026,-0.142588 0.806919,-0.142588 0.349988,0 0.625442,0.08102 0.275454,0.07777 0.463411,0.230085 0.191197,0.15231 0.288416,0.369433 0.09722,0.217122 0.09722,0.492576 v 2.320295 h -0.933302 v -0.482855 h -0.01296 q -0.09074,0.168513 -0.223604,0.288416 -0.132866,0.119904 -0.324063,0.187957 -0.191198,0.06481 -0.453689,0.06481 z m 0.265732,-0.66433 q 0.230085,0 0.395357,-0.08426 0.168513,-0.08426 0.259251,-0.230085 0.09074,-0.145828 0.09074,-0.330544 v -0.343508 q -0.04213,0.02268 -0.110182,0.04537 -0.06805,0.01944 -0.158791,0.03889 -0.09074,0.0162 -0.197679,0.03565 -0.10694,0.01944 -0.220363,0.03565 -0.165272,0.02593 -0.298138,0.08102 -0.132866,0.05185 -0.210641,0.142588 -0.07778,0.0875 -0.07778,0.223603 0,0.119904 0.06481,0.207401 0.06481,0.0875 0.184716,0.132866 0.119904,0.04537 0.278695,0.04537 z m 2.14854,0.605999 v -3.422111 h 0.92034 v 0.583315 h 0.0097 q 0.09398,-0.307861 0.294898,-0.45693 0.200919,-0.149069 0.541186,-0.149069 0.08426,0 0.15231,0.0032 0.07129,0 0.129625,0.0032 v 0.813399 q -0.05185,-0.0032 -0.171753,-0.0097 -0.116663,-0.0065 -0.239807,-0.0065 -0.194438,0 -0.349989,0.09074 -0.15555,0.0875 -0.243047,0.262491 -0.0875,0.174995 -0.0875,0.434246 v 1.853643 z m 3.800618,0.07777 q -0.518501,0 -0.904137,-0.226845 -0.382395,-0.230085 -0.596277,-0.635164 -0.210641,-0.405079 -0.210641,-0.923581 0,-0.524983 0.213882,-0.926821 0.217123,-0.40508 0.596277,-0.635165 0.379154,-0.230085 0.86849,-0.230085 0.379154,0 0.687015,0.129625 0.30786,0.126385 0.531464,0.366192 0.223603,0.236567 0.343507,0.56063 0.123144,0.324063 0.123144,0.71618 v 0.25601 h -3.023512 v -0.609239 h 2.563342 l -0.431005,0.145829 q 0,-0.259251 -0.09398,-0.447208 -0.09398,-0.187957 -0.268973,-0.288416 -0.171753,-0.103701 -0.41156,-0.103701 -0.236567,0 -0.40832,0.103701 -0.171754,0.100459 -0.265732,0.288416 -0.09398,0.187957 -0.09398,0.447208 v 0.414801 q 0,0.265732 0.09398,0.466651 0.09722,0.197679 0.278694,0.307861 0.181476,0.106941 0.437486,0.106941 0.187957,0 0.330545,-0.05185 0.145828,-0.05509 0.243047,-0.152309 0.10046,-0.10046 0.142588,-0.233326 h 0.871731 q -0.06157,0.340266 -0.288416,0.599517 -0.226845,0.259251 -0.570352,0.40832 -0.343507,0.145829 -0.758309,0.145829 z m 1.980028,-0.07777 V 15.88342 h 3.357297 v 0.855527 h -2.359182 v 1.186073 h 2.197151 v 0.829602 h -2.197151 v 1.957344 z m 3.567294,0 v -3.422111 h 0.92034 v 0.583315 h 0.0097 q 0.09398,-0.307861 0.294898,-0.45693 0.200919,-0.149069 0.541186,-0.149069 0.08426,0 0.152309,0.0032 0.07129,0 0.129626,0.0032 v 0.813399 q -0.05185,-0.0032 -0.171754,-0.0097 -0.116663,-0.0065 -0.239807,-0.0065 -0.194438,0 -0.349988,0.09074 -0.155551,0.0875 -0.243048,0.262491 -0.0875,0.174995 -0.0875,0.434246 v 1.853643 z m 3.26747,0.05833 q -0.340267,0 -0.605999,-0.113422 -0.265732,-0.113422 -0.418042,-0.340267 -0.15231,-0.230085 -0.15231,-0.570352 0,-0.288416 0.106941,-0.479614 0.106941,-0.194438 0.291657,-0.3111 0.187957,-0.119904 0.427764,-0.181476 0.243048,-0.06157 0.50878,-0.08426 0.314341,-0.03241 0.499058,-0.06157 0.184716,-0.02916 0.265732,-0.08426 0.08102,-0.05509 0.08102,-0.165272 v -0.02268 q 0,-0.126385 -0.06805,-0.220363 -0.06805,-0.09722 -0.194438,-0.15231 -0.123144,-0.05509 -0.298138,-0.05509 -0.174995,0 -0.311101,0.05509 -0.132866,0.05509 -0.210641,0.155551 -0.07778,0.100459 -0.09074,0.233325 h -0.897656 q 0.02268,-0.353229 0.207401,-0.61248 0.187956,-0.25925 0.524982,-0.398598 0.337026,-0.142588 0.806918,-0.142588 0.349989,0 0.625443,0.08102 0.275454,0.07777 0.463411,0.230085 0.191197,0.15231 0.288416,0.369433 0.09722,0.217122 0.09722,0.492576 v 2.320295 h -0.933303 v -0.482855 h -0.01296 q -0.09074,0.168513 -0.223604,0.288416 -0.132866,0.119904 -0.324063,0.187957 -0.191198,0.06481 -0.453689,0.06481 z m 0.265732,-0.66433 q 0.230085,0 0.395357,-0.08426 0.168513,-0.08426 0.259251,-0.230085 0.09074,-0.145828 0.09074,-0.330544 v -0.343508 q -0.04213,0.02268 -0.110182,0.04537 -0.06805,0.01944 -0.158791,0.03889 -0.09074,0.0162 -0.197679,0.03565 -0.106941,0.01944 -0.220363,0.03565 -0.165272,0.02593 -0.298138,0.08102 -0.132866,0.05185 -0.210641,0.142588 -0.07778,0.0875 -0.07778,0.223603 0,0.119904 0.06481,0.207401 0.06481,0.0875 0.184716,0.132866 0.119904,0.04537 0.278695,0.04537 z m 2.148539,0.605999 v -3.422111 h 0.920341 v 0.771271 h -0.05833 q 0.09074,-0.285175 0.25601,-0.469892 0.165273,-0.187956 0.382395,-0.278694 0.217123,-0.09398 0.45693,-0.09398 0.392117,0 0.680533,0.226845 0.288417,0.223604 0.349989,0.61572 h -0.10046 q 0.06481,-0.262491 0.230085,-0.450448 0.165272,-0.187957 0.401839,-0.288416 0.239807,-0.103701 0.518501,-0.103701 0.330545,0 0.589796,0.142588 0.262491,0.142588 0.41156,0.418042 0.14907,0.272213 0.14907,0.66433 v 2.268445 h -0.952747 v -2.09345 q 0,-0.307861 -0.168513,-0.460171 -0.165272,-0.152309 -0.411561,-0.152309 -0.181475,0 -0.317582,0.08101 -0.136107,0.08102 -0.210641,0.226845 -0.07129,0.142588 -0.07129,0.337026 v 2.061044 h -0.92034 V 18.59259 q 0,-0.265732 -0.158791,-0.424523 -0.158792,-0.162031 -0.411561,-0.162031 -0.168513,0 -0.30786,0.08101 -0.136107,0.07778 -0.220363,0.233326 -0.08102,0.15231 -0.08102,0.372673 v 2.018916 z m 7.220134,0.07777 q -0.518501,0 -0.904137,-0.226845 -0.382395,-0.230085 -0.596277,-0.635164 -0.210641,-0.405079 -0.210641,-0.923581 0,-0.524983 0.213882,-0.926821 0.217122,-0.40508 0.596277,-0.635165 0.379154,-0.230085 0.86849,-0.230085 0.379154,0 0.687014,0.129625 0.307861,0.126385 0.531464,0.366192 0.223604,0.236567 0.343508,0.56063 0.123144,0.324063 0.123144,0.71618 v 0.25601 h -3.023512 v -0.609239 h 2.563342 l -0.431005,0.145829 q 0,-0.259251 -0.09398,-0.447208 -0.09398,-0.187957 -0.268973,-0.288416 -0.171753,-0.103701 -0.41156,-0.103701 -0.236567,0 -0.40832,0.103701 -0.171754,0.100459 -0.265732,0.288416 -0.09398,0.187957 -0.09398,0.447208 v 0.414801 q 0,0.265732 0.09398,0.466651 0.09722,0.197679 0.278694,0.307861 0.181476,0.106941 0.437486,0.106941 0.187957,0 0.330545,-0.05185 0.145828,-0.05509 0.243047,-0.152309 0.10046,-0.10046 0.142588,-0.233326 h 0.871731 q -0.06157,0.340266 -0.288417,0.599517 -0.226844,0.259251 -0.570351,0.40832 -0.343508,0.145829 -0.758309,0.145829 z"
         id="text1-1"
         style="font-weight:bold;font-size:6.63682px;font-family:Inter;-inkscape-font-specification:'Inter Bold';letter-spacing:-0.207401px;stroke:#000000;stroke-width:0"
         aria-label="hareFrame" /><g
         style="fill:#000000;fill-opacity:1;fill-rule:nonzero;paint-order:fill markers stroke"
         id="g4"
         transform="matrix(0.5165613,0,0,0.5165613,9.097777,12.098956)"><path
           id="path2"
           style="fill:#000000;fill-opacity:1;fill-rule:nonzero;stroke:#8b5cf6;stroke-width:1.89501;stroke-dasharray:none;stroke-opacity:1;paint-order:fill markers stroke"
           d="M 17.984873,2.1860409 V 21.678829 Z" /><path
           id="path3"
           style="fill:#000000;fill-opacity:1;fill-rule:nonzero;stroke:#8b5cf6;stroke-width:1.82099;stroke-dasharray:none;stroke-opacity:1;paint-order:fill markers stroke"
           d="M 3.5673298 17.486696 L 21.460305 19.445191 L 3.5673298 17.486696 z " /><path
           id="path4"
           style="fill:#000000;fill-opacity:1;fill-rule:nonzero;stroke:#8b5cf6;stroke-width:1.80977;stroke-dasharray:none;stroke-opacity:1;paint-order:fill markers stroke"
           inkscape:label="path4"
           d="M 6.6177812,3.1106992 V 20.889305 Z" /><path
           id="path5"
           style="fill:#000000;fill-opacity:1;fill-rule:nonzero;stroke:#8b5cf6;stroke-width:1.82099;stroke-dasharray:none;stroke-opacity:1;paint-order:normal"
           inkscape:label="path5"
           d="M 21.460305 4.519129 L 3.5673298 6.4776235 L 21.460305 4.519129 z " /></g></g></g></svg>
